<svg stroke="#f2e0c2" fill="#22242e" xmlns="http://www.w3.org/2000/svg" viewBox="0 0 293 254">
  <title>Civic Logo</title>
    <g fill="#50000">
      <path d="M0,0H293V254H0ZM85.43,21.45c-2.64,1.09-4.86,1.43-6.24,2.69-5.39,4.93-11,9.76-15.65,15.33C35.2,73.11,24.63,111.9,32.14,155.2c5.59,32.27,21.55,59,46.27,80.4,1.71,1.48,4.26,2,7,3.2Zm194.09,1.27c-69.88,54.46-67.35,163.67,0,214.86Zm-159.75-.49V208.56c1.81-2.73,2.87-4.32,3.92-5.92a274.86,274.86,0,0,0,37-86.41,286.09,286.09,0,0,0,7.39-81.17c-.61-12.84-.74-12.83-13.29-12.83Zm63.86.17c6.71,81.75-16.53,153.35-70,215.35h77V22.4Zm72.43,215.39C225.32,207.87,209,172.61,209,130.21s16.53-77.8,47-107.62H204.69v215.2ZM107.55,22.59c-8.57-.8-8.57-.8-8.57,7v208h8.57ZM11.19,22.5v91.59C15.94,78.26,31.4,48,58.19,22.5Zm.14,123.61v91.61H58.08C31.48,212.25,15.87,182,11.33,146.11Z" fill="#fff"/>
      <path d="M85.43,21.45V238.8c-2.76-1.22-5.31-1.72-7-3.2-24.72-21.39-40.68-48.13-46.27-80.4-7.51-43.3,3.06-82.09,31.4-115.73,4.69-5.57,10.26-10.4,15.65-15.33C80.57,22.88,82.79,22.54,85.43,21.45Z"/>
      <path d="M279.52,22.72V237.58C212.17,186.39,209.64,77.18,279.52,22.72Z"/>
      <path d="M119.77,22.23h35.06c12.55,0,12.68,0,13.29,12.83a286.09,286.09,0,0,1-7.39,81.17,274.86,274.86,0,0,1-37,86.41c-1,1.6-2.11,3.19-3.92,5.92Z"/>
      <path d="M183.63,22.4h6.94V237.75h-77C167.1,175.75,190.34,104.15,183.63,22.4Z"/>
      <path d="M256.06,237.79H204.69V22.59H256c-30.46,29.82-47,65.12-47,107.62S225.32,207.87,256.06,237.79Z"/>
      <path d="M107.55,22.59v215H99v-208C99,21.79,99,21.79,107.55,22.59Z"/>
      <path d="M11.19,22.5h47C31.4,48,15.94,78.26,11.19,114.09Z"/>
      <path d="M11.33,146.11c4.54,35.88,20.15,66.14,46.75,91.61H11.33Z"/>
    </g>
</svg>
